<?xml version="1.0" encoding="utf-8"?>
<!-- Generator: Adobe Illustrator 20.0.0, SVG Export Plug-In . SVG Version: 6.00 Build 0)  -->
<svg version="1.1" id="Layer_1" xmlns="http://www.w3.org/2000/svg" xmlns:xlink="http://www.w3.org/1999/xlink" x="0px" y="0px"
	 viewBox="0 0 30 30" style="enable-background:new 0 0 30 30;" xml:space="preserve">
<style type="text/css">
	.st0{fill:#FFFFFF;}
</style>
<g>
	<path class="st0" d="M18.2,7.8c-0.4-0.4-1-0.4-1.4,0l-6.5,6.5C10.1,14.5,10,14.7,10,15s0.1,0.5,0.3,0.7l6.5,6.5
		c0.4,0.4,1,0.4,1.4,0s0.4-1,0-1.4L12.4,15l5.8-5.8C18.6,8.8,18.6,8.2,18.2,7.8z M15,0C6.7,0,0,6.7,0,15s6.7,15,15,15s15-6.7,15-15
		S23.3,0,15,0z M15,28C7.8,28,2,22.2,2,15S7.8,2,15,2s13,5.8,13,13S22.2,28,15,28z"/>
</g>
</svg>
