<?xml version="1.0" encoding="utf-8"?>
<!-- Generator: Adobe Illustrator 20.0.0, SVG Export Plug-In . SVG Version: 6.00 Build 0)  -->
<svg version="1.1" id="Layer_1" xmlns="http://www.w3.org/2000/svg" xmlns:xlink="http://www.w3.org/1999/xlink" x="0px" y="0px"
	 viewBox="0 0 29.9 29.9" style="enable-background:new 0 0 29.9 29.9;" xml:space="preserve">
<style type="text/css">
	.st0{fill:#FFFFFF;}
</style>
<g>
	<path class="st0" d="M19.6,14.1l-6.5-6.5c-0.4-0.4-1-0.4-1.4,0s-0.4,1,0,1.4l5.8,5.8l-5.8,5.8c-0.4,0.4-0.4,1,0,1.4s1,0.4,1.4,0
		l6.5-6.5c0.2-0.2,0.3-0.5,0.3-0.7C19.8,14.6,19.8,14.3,19.6,14.1z M14.9,0C6.7,0,0,6.7,0,14.9s6.7,14.9,14.9,14.9
		s14.9-6.7,14.9-14.9S23.2,0,14.9,0z M14.9,27.9C7.8,27.9,2,22.1,2,14.9S7.8,2,14.9,2s12.9,5.8,12.9,12.9S22.1,27.9,14.9,27.9z"/>
</g>
</svg>
