<?xml version="1.0" encoding="utf-8"?>
<!-- Generator: Adobe Illustrator 17.0.0, SVG Export Plug-In . SVG Version: 6.00 Build 0)  -->
<!DOCTYPE svg PUBLIC "-//W3C//DTD SVG 1.1//EN" "http://www.w3.org/Graphics/SVG/1.1/DTD/svg11.dtd">
<svg version="1.1" id="Слой_1" xmlns="http://www.w3.org/2000/svg" xmlns:xlink="http://www.w3.org/1999/xlink" x="0px" y="0px"
	 width="24px" height="22px" viewBox="0 0 24 22" enable-background="new 0 0 24 22" xml:space="preserve">
<g>
	<g>
		<polygon fill="#FFFFFF" points="5.359,2.269 0,2.269 0,16.84 21.103,16.84 21.103,2.269 		"/>
		<rect x="0.744" y="3.014" fill="#4D8392" width="19.615" height="13.007"/>
	</g>
</g>
<g>
	<polygon fill="#FFFFFF" points="8.256,4.602 2.897,4.602 2.897,19.173 24,19.173 24,4.602 	"/>
	<rect x="3.641" y="5.347" fill="#48A3C4" width="19.615" height="13.007"/>
	<g>
		<ellipse fill="#EFB944" cx="16.487" cy="10.485" rx="4.231" ry="4.096"/>
		<path fill="#FFFFFF" d="M18.744,13.042c0-0.968-0.795-1.738-1.795-1.738c-0.179,0-0.359,0.025-0.513,0.074c0-0.025,0-0.05,0-0.074
			c0-0.819-0.692-1.489-1.538-1.489c-0.282,0-0.538,0.074-0.769,0.199c-0.308-0.546-0.897-0.918-1.59-0.918
			c-0.821,0-1.487,0.521-1.718,1.216c-0.308-0.223-0.692-0.348-1.103-0.348c-1,0-1.795,0.769-1.795,1.738
			c0,0.174,0.026,0.323,0.077,0.472c-0.359,0.124-0.641,0.348-0.872,0.621l0,0c-0.205,0.298-0.333,0.645-0.333,1.018
			c0,0.372,0.128,0.745,0.333,1.018l0,0c0.282,0.372,0.692,0.621,1.154,0.695c0.077,0.745,0.744,1.316,1.538,1.316
			c0.41,0,0.795-0.149,1.077-0.422c0.256,0.472,0.769,0.794,1.359,0.794c0.513,0,0.974-0.248,1.256-0.621
			c0.282,0.372,0.744,0.621,1.256,0.621c0.538,0,1-0.248,1.282-0.645c0.205,0.074,0.436,0.124,0.667,0.124
			c1,0,1.821-0.769,1.821-1.738c0-0.298-0.077-0.571-0.205-0.794C18.59,13.886,18.744,13.489,18.744,13.042z"/>
	</g>
</g>
</svg>
